<?xml version="1.0" encoding="UTF-8"?>
<svg width="195px" height="44px" viewBox="0 0 195 44" version="1.1" xmlns="http://www.w3.org/2000/svg" xmlns:xlink="http://www.w3.org/1999/xlink">
    <!-- Generator: Sketch 43.2 (39069) - http://www.bohemiancoding.com/sketch -->
    <title>huddle</title>
    <desc>Created with Sketch.</desc>
    <defs></defs>
    <g id="Page-1" stroke="none" stroke-width="1" fill="none" fill-rule="evenodd">
        <text id="huddle" font-family="Edmondsans-Bold, Edmondsans" font-size="48" font-weight="bold" fill="#4B5057">
            <tspan x="44" y="36">huddle</tspan>
        </text>
        <g id="hand" transform="translate(0.000000, 6.000000)" fill-rule="nonzero" fill="#4B5057">
            <path d="M30.9675556,31.8985 C30.8598889,32.2291 30.603,32.5958 30.1817778,32.7193 C29.8776667,32.8086 19.8155556,35.7403 19.5057778,35.822 C18.6198889,36.0595 18.0041111,35.8847 17.5998889,35.5256 C16.9841111,34.9803 9.86866667,30.1106 0.892666667,29.6508 C-0.0668888889,29.6033 0.403444444,25.9439 3.14611111,25.9439 C5.02555556,25.9439 10.5203333,27.3176 11.1833333,26.6488 C11.6952222,26.132 11.9275556,23.0787 9.79122222,17.7511 L9.79122222,17.7511 L5.494,7.0408 C5.086,6.0243 5.57711111,4.8691 6.58577778,4.4587 C7.59633333,4.0483 8.74855556,4.5404 9.15277778,5.5569 C9.15277778,5.5569 12.5357778,13.9891 12.9041111,14.903 C13.2686667,15.815 13.7182222,16.1608 14.2074444,15.9708 C14.6437778,15.8036 14.7344444,15.511 14.47,14.6237 L10.6053333,3.1705 C10.254,2.1331 10.8055556,1.0083 11.8368889,0.6549 C12.8701111,0.2996 13.9921111,0.8563 14.3396667,1.8937 L18.0154444,12.7845 C18.3403333,13.7421 18.6841111,14.2437 19.2281111,14.0119 C19.5548889,13.8732 19.5322222,13.3697 19.4453333,12.9308 L16.8651111,2.5359 C16.6006667,1.47 17.2447778,0.3946 18.3025556,0.1286 C19.3603333,-0.1355 20.4275556,0.5086 20.6938889,1.5745 L23.0738889,11.1543 C23.4214444,12.5622 23.7406667,13.0695 24.2941111,12.9308 C24.8588889,12.7921 24.8324444,12.3247 24.755,11.939 C24.5755556,11.0365 23.1078889,3.7158 23.1078889,3.7158 C22.9133333,2.7373 23.5423333,1.7873 24.5132222,1.5916 C25.4822222,1.3959 26.4285556,2.0286 26.6212222,3.0033 L28.4118889,11.9542 L28.4137778,11.9561 C28.4137778,11.9561 28.4137778,11.9561 28.4137778,11.958 L29.4866667,17.3255 C29.7208889,18.3382 29.9891111,19.292 30.3366667,20.2268 C32.3861111,25.7159 31.317,30.7984 30.9675556,31.8985 Z" id="Shape"></path>
        </g>
    </g>
</svg>